<svg width="185" height="36" viewBox="0 0 185 36" fill="none" xmlns="http://www.w3.org/2000/svg">
<path d="M19.8781 33.4377C19.893 34.0802 19.9063 34.7226 19.9212 35.3633C15.6181 35.36 8.2155 35.355 3.91238 35.3517C2.64744 35.3501 1.17388 35.2458 0.458625 34.2027C0.0149018 33.5553 0 32.7175 0 31.9327C0.00662273 22.5268 0.0115899 13.1192 0.0182126 3.71328C0.0182126 3.21657 0.0281456 2.70828 0.14901 2.22317C0.273187 1.72481 0.534785 1.38208 0.860954 1.00293C1.49674 0.266147 2.52988 0.206543 3.43885 0.206543C10.2205 0.209854 17.0022 0.214823 23.7839 0.218134C25.0422 0.218134 26.5108 0.325753 27.2145 1.36883C27.6367 1.99634 27.6565 2.801 27.6598 3.55599C27.6929 9.84261 27.6929 16.1309 27.6565 22.4175C27.0025 22.4159 26.3469 22.4159 25.6929 22.4142C25.7111 16.0398 25.7293 9.66546 25.7475 3.29108C25.7492 2.96326 25.7343 2.59569 25.4975 2.36886C25.2723 2.15197 24.928 2.13872 24.615 2.13872C17.3648 2.13376 10.1146 2.12879 2.86433 2.12382C2.62922 2.12382 2.37425 2.13045 2.19378 2.28111C1.96695 2.46986 1.94874 2.80596 1.94874 3.10068C1.94046 12.894 1.93218 22.6891 1.9239 32.4824C1.9239 32.7705 1.94377 33.1033 2.17557 33.2755C2.33451 33.3947 2.54975 33.3997 2.75009 33.4013C7.42739 33.4162 15.2025 33.4278 19.8781 33.4377Z" fill="#2E5CFF"/>
<path d="M7.95076 9.46032C7.9491 8.24174 7.94579 7.1523 7.94414 6.0314C9.08159 6.02975 10.1495 6.02644 11.282 6.02478C11.2837 7.14568 11.287 8.23677 11.2886 9.41727C12.4592 9.41562 13.5668 9.41231 14.7093 9.41065C14.7109 10.5663 14.7142 11.6326 14.7159 12.7601C13.6082 12.7618 12.5188 12.7651 11.3416 12.7667C11.3433 13.9307 11.3466 15.0383 11.3482 16.1841C10.1942 16.1857 9.1263 16.189 7.97063 16.1907C7.96897 15.1012 7.96566 13.9936 7.96401 12.8114C6.79013 12.8131 5.70234 12.8164 4.56986 12.818C4.5682 11.6789 4.56489 10.616 4.56323 9.46695C5.66095 9.46529 6.74542 9.46198 7.95076 9.46032Z" fill="#2E5CFF"/>
<path d="M13.8034 20.7193C11.1775 20.7226 8.55323 20.7243 5.92731 20.7276C5.44551 20.7276 4.90576 20.7044 4.57628 20.3517C4.49515 20.2656 4.43223 20.1597 4.41733 20.0421C4.29316 19.0636 5.84287 19.2275 6.36276 19.2292C10.8414 19.2391 15.3217 19.2491 19.8003 19.2606C20.5255 19.2623 21.2523 19.264 21.9775 19.2656C22.2722 19.2656 22.5752 19.2689 22.8434 19.3898C23.1116 19.5106 23.3352 19.7838 23.3004 20.0752C23.2706 20.3269 23.0587 20.5272 22.8219 20.6183C22.5851 20.7094 22.3252 20.711 22.0702 20.711C21.494 20.711 20.9179 20.7127 20.3417 20.7127C18.1645 20.7143 15.9839 20.716 13.8034 20.7193Z" fill="#161616"/>
<path d="M21.5771 23.6012C20.8999 24.1194 20.3701 24.5482 19.8121 24.9373C19.6614 25.0416 19.4296 25.0632 19.2343 25.0648C14.5868 25.0897 9.93927 25.1046 5.29177 25.1277C4.75202 25.131 4.28843 25.0234 4.30002 24.3777C4.31161 23.7717 4.77851 23.6707 5.27687 23.6691C8.44585 23.6558 11.6148 23.6426 14.7838 23.6293C16.9941 23.6211 19.2045 23.6111 21.5771 23.6012Z" fill="#161616"/>
<path d="M17.3072 28.0815C17.1631 28.4574 17.0489 28.8514 16.8601 29.2057C16.7889 29.3382 16.5439 29.4491 16.3767 29.4508C12.6166 29.4607 8.8549 29.4541 5.09485 29.4524C4.59152 29.4524 4.21899 29.2703 4.21899 28.7173C4.21899 28.204 4.57496 27.9938 5.04352 27.9938C9.08007 27.9954 13.115 28.0037 17.1515 28.0136C17.188 28.0103 17.2244 28.0434 17.3072 28.0815Z" fill="#161616"/>
<path d="M20.2277 16.4261C19.4711 16.4244 18.7161 16.4244 17.9595 16.4195C17.4776 16.4161 17.1564 16.2026 17.1548 15.691C17.1531 15.2075 17.471 14.9923 17.9147 14.989C19.4496 14.9823 20.9844 14.9906 22.5175 15.0005C22.9679 15.0039 23.2974 15.2307 23.2974 15.691C23.2974 16.1695 22.9944 16.4327 22.4944 16.4311C21.7394 16.4277 20.9827 16.4277 20.2277 16.4261Z" fill="#161616"/>
<path d="M20.4243 6.19696C21.1561 6.19365 21.8896 6.19033 22.6214 6.18702C23.1016 6.18537 23.4542 6.39398 23.4559 6.89234C23.4575 7.38077 23.1297 7.61257 22.638 7.61422C21.128 7.61753 19.6164 7.62747 18.1064 7.63243C17.656 7.63409 17.3414 7.43872 17.3166 6.96354C17.2901 6.44696 17.6064 6.21848 18.0898 6.21186C18.8663 6.19696 19.6462 6.20027 20.4243 6.19696Z" fill="#161616"/>
<path d="M20.2839 12.0251C19.5521 12.0284 18.8186 12.0284 18.0868 12.035C17.6133 12.04 17.2606 11.8678 17.2391 11.3529C17.2142 10.785 17.5884 10.6128 18.0884 10.6095C19.5537 10.6045 21.019 10.5995 22.4843 10.5879C22.9826 10.5846 23.3833 10.7552 23.375 11.3015C23.3684 11.8297 22.9942 12.0284 22.481 12.0201C21.7492 12.0069 21.0157 12.0218 20.2839 12.0251Z" fill="#161616"/>
<path d="M25.7426 24.3848C25.9678 24.4311 26.1979 24.4543 26.4148 24.5255C27.8603 24.9908 28.7394 25.9709 28.9911 27.471C29.0656 27.9164 29.0242 28.3816 29.0358 28.8386C29.0374 28.875 29.0408 28.9131 29.0341 28.9479C29.0159 29.0588 29.0573 29.1151 29.1616 29.1714C29.501 29.3518 29.6832 29.6449 29.6865 30.0323C29.6898 30.5042 29.6865 30.9761 29.6798 31.4479C29.6567 33.3669 28.2361 35.1086 26.3602 35.5159C24.2327 35.9795 22.1647 34.8653 21.3882 32.8321C21.2127 32.3751 21.1233 31.8983 21.1233 31.4082C21.1216 30.9396 21.1233 30.4711 21.1299 30.0042C21.1365 29.5919 21.3369 29.2972 21.7011 29.1167C21.7723 29.082 21.7938 29.0455 21.7922 28.971C21.7905 28.6266 21.7839 28.2823 21.7971 27.9395C21.8567 26.5256 22.5141 25.4775 23.7509 24.7937C24.1548 24.5702 24.5936 24.4477 25.0539 24.403C25.0787 24.4013 25.1019 24.3898 25.1267 24.3831C25.3337 24.3815 25.5373 24.3831 25.7426 24.3848ZM25.4115 29.6946C24.3287 29.6896 23.2459 29.6846 22.1647 29.6797C21.9246 29.678 21.7889 29.8121 21.7872 30.0505C21.7839 30.4744 21.7723 30.8999 21.7856 31.3238C21.7938 31.5853 21.8154 31.8503 21.87 32.1069C22.3833 34.5507 25.2261 35.751 27.3271 34.405C28.4364 33.693 28.9927 32.6549 29.0259 31.3403C29.0358 30.9347 29.0308 30.529 29.0325 30.1217C29.0341 29.8386 28.91 29.7128 28.6285 29.7111C27.5556 29.7045 26.4827 29.6995 25.4115 29.6946ZM27.0506 29.0389C27.0523 28.6415 27.0556 28.2508 27.0556 27.8601C27.0556 27.817 27.049 27.7723 27.0407 27.7293C26.9099 26.9693 26.2625 26.3964 25.491 26.3584C24.7327 26.3219 24.0389 26.8286 23.8353 27.567C23.8105 27.6548 23.7873 27.7458 23.7856 27.8352C23.779 28.2293 23.779 28.6233 23.7773 29.0224C24.8668 29.029 25.9546 29.0339 27.0506 29.0389ZM28.3768 29.0488C28.3785 28.8469 28.3834 28.6548 28.3785 28.4611C28.3685 28.1399 28.3851 27.8137 28.3305 27.4991C27.9679 25.3898 25.5555 24.3533 23.7757 25.5438C23.0025 26.0603 22.5571 26.7955 22.476 27.726C22.4395 28.1482 22.4578 28.5737 22.4511 28.9975C22.4511 29.0041 22.4578 29.0091 22.4611 29.0141C22.6763 29.0157 22.8882 29.0157 23.1068 29.0174C23.1084 28.7674 23.1051 28.5273 23.1118 28.2856C23.1167 28.0587 23.1068 27.8286 23.1465 27.6084C23.3833 26.3103 24.582 25.4991 25.8817 25.7458C26.9182 25.9428 27.7195 26.9064 27.7212 27.9611C27.7212 28.2823 27.7179 28.6051 27.7179 28.9263C27.7179 28.9644 27.7179 29.0025 27.7179 29.0439C27.943 29.0455 28.1517 29.0472 28.3768 29.0488Z" fill="#2E5CFF"/>
<path d="M25.0658 33.1713C25.0674 32.9147 25.0641 32.6597 25.0724 32.4031C25.0757 32.3104 25.0509 32.264 24.9648 32.2226C24.579 32.0372 24.3571 31.6067 24.4234 31.1994C24.4979 30.7524 24.8456 30.4129 25.286 30.3583C25.7628 30.3004 26.2148 30.6017 26.3522 31.0686C26.488 31.5322 26.2694 32.0289 25.8274 32.2325C25.7462 32.2706 25.7247 32.312 25.7247 32.3948C25.7264 32.9114 25.7214 33.4263 25.7198 33.9429C25.7181 34.1647 25.5856 34.3088 25.3853 34.3071C25.1916 34.3038 25.0624 34.1598 25.0624 33.9429C25.0624 33.6829 25.0641 33.4279 25.0658 33.1713ZM25.7313 31.3385C25.728 31.163 25.5724 31.0107 25.3986 31.0123C25.223 31.0156 25.0707 31.1713 25.0724 31.3451C25.0757 31.5189 25.2313 31.6729 25.4052 31.6713C25.5807 31.668 25.7347 31.5107 25.7313 31.3385Z" fill="#2E5CFF"/>
<path d="M48.2531 26.4509C52.9885 26.4509 55.2852 24.0832 55.2852 21.313C55.2852 15.228 45.6487 17.3353 45.6487 14.281C45.6487 13.2392 46.5247 12.3868 48.7977 12.3868C50.2657 12.3868 51.852 12.813 53.391 13.689L54.5749 10.7768C53.0359 9.80604 50.9049 9.30883 48.8214 9.30883C44.1097 9.30883 41.8367 11.6528 41.8367 14.4704C41.8367 20.6264 51.4732 18.4954 51.4732 21.5971C51.4732 22.6152 50.5498 23.3729 48.2768 23.3729C46.288 23.3729 44.2044 22.6626 42.8075 21.6445L41.5052 24.533C42.9732 25.6695 45.625 26.4509 48.2531 26.4509ZM70.1233 19.845C70.1233 15.7489 67.2348 13.2392 63.4938 13.2392C59.6108 13.2392 56.6986 15.9857 56.6986 19.7977C56.6986 23.586 59.5635 26.3562 63.9674 26.3562C66.264 26.3562 68.0398 25.6459 69.2236 24.2963L67.2584 22.1654C66.3824 22.994 65.4116 23.3966 64.0621 23.3966C62.1206 23.3966 60.771 22.4258 60.4158 20.8395H70.0523C70.076 20.5317 70.1233 20.1291 70.1233 19.845ZM63.5175 16.0331C65.1749 16.0331 66.3824 17.0748 66.6428 18.6849H60.3685C60.6289 17.0512 61.8364 16.0331 63.5175 16.0331ZM80.3247 13.2392C78.691 13.2392 77.2704 13.7601 76.276 14.7545V8.59852H72.5824V26.1667H76.276V19.8687C76.276 17.5247 77.5545 16.4356 79.3303 16.4356C80.964 16.4356 81.9111 17.3826 81.9111 19.4425V26.1667H85.6047V18.8743C85.6047 14.9913 83.3317 13.2392 80.3247 13.2392ZM94.0906 13.2392C92.0544 13.2392 89.9945 13.7838 88.5976 14.7782L89.9235 17.359C90.8469 16.625 92.2438 16.1751 93.5934 16.1751C95.5823 16.1751 96.5293 17.0985 96.5293 18.6849H93.5934C89.7104 18.6849 88.124 20.2475 88.124 22.4968C88.124 24.6988 89.8998 26.3562 92.8831 26.3562C94.7536 26.3562 96.0795 25.7406 96.7661 24.5804V26.1667H100.223V18.898C100.223 15.0386 97.9736 13.2392 94.0906 13.2392ZM93.8065 23.8701C92.5043 23.8701 91.7229 23.2545 91.7229 22.3311C91.7229 21.4787 92.2675 20.8395 93.9959 20.8395H96.5293V22.1417C96.1031 23.3018 95.0377 23.8701 93.8065 23.8701ZM110.787 22.9467C110.385 23.2545 109.84 23.4202 109.296 23.4202C108.301 23.4202 107.709 22.8283 107.709 21.7392V16.5539H110.882V13.7127H107.709V10.6111H104.016V13.7127H102.05V16.5539H104.016V21.7865C104.016 24.8172 105.768 26.3562 108.775 26.3562C109.911 26.3562 111.024 26.0957 111.782 25.5511L110.787 22.9467ZM126.972 9.59295V23.0414L116.294 9.59295H114.849V26.1667H116.602V12.7183L127.256 26.1667H128.7V9.59295H126.972ZM138.111 13.618C136.146 13.618 134.299 14.2336 133.045 15.2991L133.802 16.5539C134.82 15.6542 136.336 15.086 137.946 15.086C140.266 15.086 141.474 16.2461 141.474 18.3771V19.1347H137.52C133.944 19.1347 132.713 20.7447 132.713 22.6626C132.713 24.8172 134.442 26.2851 137.259 26.2851C139.319 26.2851 140.787 25.5038 141.545 24.2252V26.1667H143.155V18.4481C143.155 15.228 141.331 13.618 138.111 13.618ZM137.52 24.9592C135.531 24.9592 134.37 24.0595 134.37 22.6152C134.37 21.3367 135.152 20.3896 137.567 20.3896H141.474V22.4258C140.811 24.0595 139.414 24.9592 137.52 24.9592ZM163.253 13.618C161.003 13.618 159.227 14.6361 158.328 16.2461C157.57 14.4941 155.96 13.618 153.9 13.618C151.817 13.618 150.207 14.4941 149.331 15.9857V13.7127H147.721V26.1667H149.402V19.6319C149.402 16.7907 151.035 15.1333 153.569 15.1333C155.842 15.1333 157.168 16.4829 157.168 19.111V26.1667H158.849V19.6319C158.849 16.7907 160.459 15.1333 163.016 15.1333C165.265 15.1333 166.591 16.4829 166.591 19.111V26.1667H168.272V18.9453C168.272 15.3701 166.283 13.618 163.253 13.618ZM177.188 13.618C175.222 13.618 173.376 14.2336 172.121 15.2991L172.878 16.5539C173.896 15.6542 175.412 15.086 177.022 15.086C179.342 15.086 180.55 16.2461 180.55 18.3771V19.1347H176.596C173.02 19.1347 171.789 20.7447 171.789 22.6626C171.789 24.8172 173.518 26.2851 176.335 26.2851C178.395 26.2851 179.863 25.5038 180.621 24.2252V26.1667H182.231V18.4481C182.231 15.228 180.408 13.618 177.188 13.618ZM176.596 24.9592C174.607 24.9592 173.447 24.0595 173.447 22.6152C173.447 21.3367 174.228 20.3896 176.643 20.3896H180.55V22.4258C179.887 24.0595 178.49 24.9592 176.596 24.9592Z" fill="#2E5CFF"/>
</svg>
