<svg width="640" height="640" viewBox="0 0 640 640" fill="none" xmlns="http://www.w3.org/2000/svg">
<path d="M203.322 55L208.921 65.2077L219.168 70.7863L208.921 76.3649L203.322 86.4539L197.722 76.3649L187.475 70.7863L197.722 65.2077L203.322 55Z" fill="#F5F5F5"/>
<path d="M436.494 330.844L440.664 338.441L448.289 342.595L440.664 346.868L436.494 354.465L432.204 346.868L424.579 342.595L432.204 338.441L436.494 330.844Z" fill="#EBEBEB"/>
<path d="M448.289 293.1L450.196 296.542L453.651 298.441L450.196 300.34L448.289 303.782L446.383 300.34L442.927 298.441L446.383 296.542L448.289 293.1Z" fill="#E0E0E0"/>
<path d="M163.407 58.7982L165.313 62.2403L168.769 64.1394L165.313 66.0385L163.407 69.4807L161.501 66.0385L158.045 64.1394L161.501 62.2403L163.407 58.7982Z" fill="#E0E0E0"/>
<path d="M473.072 506.155C472.476 503.188 469.498 500.814 466.4 500.933C463.302 501.051 460.562 503.544 460.085 506.63C459.608 503.663 456.868 501.051 453.77 501.051C450.672 500.933 447.694 503.306 447.098 506.393C446.74 508.648 447.455 510.903 448.647 512.802C449.838 514.701 451.625 516.125 453.294 517.668C455.676 519.805 457.821 521.704 460.204 523.841C462.587 521.704 464.493 519.805 466.876 517.668C468.544 516.125 470.213 514.582 471.404 512.802C472.834 510.547 473.549 508.292 473.072 506.155Z" fill="#EBEBEB"/>
<path d="M137.641 412.585C137.045 409.618 134.066 407.244 130.969 407.363C127.871 407.481 125.13 409.974 124.654 413.06C124.177 410.093 121.437 407.481 118.339 407.481C115.241 407.363 112.262 409.736 111.667 412.822C111.309 415.078 112.024 417.333 113.216 419.232C114.407 421.131 116.194 422.555 117.862 424.098C120.245 426.235 122.39 428.134 124.773 430.27C127.156 428.134 129.062 426.235 131.445 424.098C133.113 422.555 134.781 421.012 135.973 419.232C137.403 416.977 138.117 414.722 137.641 412.585Z" fill="#EBEBEB"/>
<path d="M280.172 426.512C280.053 426.63 278.385 423.188 274.929 420.221C271.593 417.135 268.019 415.829 268.138 415.71C268.138 415.592 269.091 415.829 270.402 416.541C271.831 417.135 273.619 418.322 275.287 419.865C276.955 421.408 278.265 423.07 279.099 424.375C279.934 425.562 280.291 426.512 280.172 426.512Z" fill="#EB996E"/>
<path d="M283.865 411.675C283.746 411.794 282.316 410.607 280.41 409.42C279.457 408.826 278.504 408.351 277.908 407.995C277.193 407.639 276.836 407.639 276.836 407.521C276.836 407.402 277.312 407.402 278.146 407.639C278.861 407.877 279.933 408.352 280.887 408.945C282.674 410.132 283.984 411.556 283.865 411.675Z" fill="#EB996E"/>
<path d="M287.559 407.165C287.559 407.283 285.653 407.402 283.389 406.69C282.197 406.334 281.244 405.74 280.648 405.265C280.053 404.791 279.814 404.316 279.814 404.316C279.933 404.197 281.244 405.503 283.508 406.096C285.653 406.808 287.559 407.046 287.559 407.165Z" fill="#EB996E"/>
<path d="M266.351 432.446C266.232 432.446 265.517 431.497 264.325 429.835C263.134 428.173 261.704 425.799 259.202 424.019C256.819 422.239 253.959 421.883 251.934 422.12C250.027 422.357 248.955 423.188 248.836 423.07C248.836 423.07 249.074 422.832 249.551 422.476C250.027 422.12 250.861 421.883 251.815 421.645C253.84 421.289 256.938 421.645 259.44 423.426C262.061 425.325 263.491 427.817 264.563 429.479C265.755 431.378 266.351 432.446 266.351 432.446Z" fill="#EB996E"/>
<path d="M283.031 480.517C283.031 480.636 279.099 481.23 274.095 481.823C269.21 482.416 265.159 482.654 265.159 482.535C265.159 482.416 269.091 481.823 274.095 481.23C278.98 480.636 283.031 480.399 283.031 480.517Z" fill="#EB996E"/>
<path d="M470.689 85.8604L472.119 88.2343L474.502 89.6586L472.119 90.9642L470.689 93.3381L469.378 90.9642L466.876 89.6586L469.378 88.2343L470.689 85.8604Z" fill="#2E5CFF"/>
<path d="M498.808 146.513L500.238 149.006L502.621 150.311L500.238 151.617L498.808 154.109L497.497 151.617L494.995 150.311L497.497 149.006L498.808 146.513Z" fill="#2E5CFF"/>
<path d="M50.755 366.536L53.1601 370.766L57.7519 372.982L53.1601 375.399L50.755 379.428L48.3498 375.399L43.7581 372.982L48.3498 370.766L50.755 366.536Z" fill="#2E5CFF"/>
<path d="M433.872 100.935L436.97 106.513L442.57 109.599L436.97 112.804L433.872 118.382L430.775 112.804L425.055 109.599L430.775 106.513L433.872 100.935Z" fill="#2E5CFF"/>
<path d="M94.4535 299.932L99.7845 309.754L109.421 315.074L99.7845 320.394L94.4535 330.011L89.1226 320.394L79.2808 315.074L89.1226 309.754L94.4535 299.932Z" fill="#2E5CFF"/>
<path d="M506.553 404.791L509.65 410.369L515.25 413.455L509.65 416.541L506.553 422.239L503.455 416.541L497.736 413.455L503.455 410.369L506.553 404.791Z" fill="#2E5CFF"/>
<g clip-path="url(#clip0_1_652)">
<path d="M502.443 207.965C499.848 187.812 494.778 168.486 484.175 150.878C464.455 118.156 429.029 98.4006 393.054 88.3777C362.903 79.977 330.448 77.5492 300.383 86.2292C267.379 95.7579 239.682 117.694 209.961 134.893C188.292 147.43 165.418 157.818 142.037 166.756C123.114 173.986 99.0657 178.036 83.5111 191.776C73.9738 200.198 65.5775 209.931 58.376 220.405C29.3443 262.613 19.8823 316.573 24.3603 366.923C27.482 402.02 37.1593 437.513 58.8497 465.315C89.2808 504.311 141.521 523.53 190.811 518.685C246.754 513.184 299.802 479.807 355.432 487.821C383.129 491.807 409.631 506.008 437.49 503.366C464.95 500.766 488.449 481.923 505.015 459.912C518.299 442.262 527.136 420.916 527.954 398.7C528.837 374.637 517.933 352.711 512.454 329.732C502.884 289.577 507.653 248.507 502.443 207.965Z" fill="#2E5CFF"/>
<path opacity="0.7" d="M502.443 207.965C499.848 187.812 494.778 168.486 484.175 150.878C464.455 118.156 429.029 98.4006 393.054 88.3777C362.903 79.977 330.448 77.5492 300.383 86.2292C267.379 95.7579 239.682 117.694 209.961 134.893C188.292 147.43 165.418 157.818 142.037 166.756C123.114 173.986 99.0657 178.036 83.5111 191.776C73.9738 200.198 65.5775 209.931 58.376 220.405C29.3443 262.613 19.8823 316.573 24.3603 366.923C27.482 402.02 37.1593 437.513 58.8497 465.315C89.2808 504.311 141.521 523.53 190.811 518.685C246.754 513.184 299.802 479.807 355.432 487.821C383.129 491.807 409.631 506.008 437.49 503.366C464.95 500.766 488.449 481.923 505.015 459.912C518.299 442.262 527.136 420.916 527.954 398.7C528.837 374.637 517.933 352.711 512.454 329.732C502.884 289.577 507.653 248.507 502.443 207.965Z" fill="white"/>
<path d="M368.627 398.88H525.723V392.972H368.627V398.88Z" stroke="#263238" stroke-miterlimit="10" stroke-linecap="round" stroke-linejoin="round"/>
<path d="M375.914 558.683H518.436V399.047H375.914V558.683Z" stroke="#263238" stroke-miterlimit="10" stroke-linecap="round" stroke-linejoin="round"/>
<path d="M381.042 441.116H513.477V406.481H381.042V441.116Z" stroke="#263238" stroke-miterlimit="10" stroke-linecap="round" stroke-linejoin="round"/>
<path d="M440.865 426.989H454.105V420.608H440.865V426.989Z" fill="#263238" stroke="#263238" stroke-miterlimit="10" stroke-linecap="round" stroke-linejoin="round"/>
<path d="M381.042 484.866H513.477V450.231H381.042V484.866Z" stroke="#263238" stroke-miterlimit="10" stroke-linecap="round" stroke-linejoin="round"/>
<path d="M440.865 470.739H454.105V464.358H440.865V470.739Z" fill="#263238" stroke="#263238" stroke-miterlimit="10" stroke-linecap="round" stroke-linejoin="round"/>
<path d="M381.042 528.827H513.477V494.193H381.042V528.827Z" stroke="#263238" stroke-miterlimit="10" stroke-linecap="round" stroke-linejoin="round"/>
<path d="M440.865 514.69H454.105V508.309H440.865V514.69Z" fill="#263238" stroke="#263238" stroke-miterlimit="10" stroke-linecap="round" stroke-linejoin="round"/>
<path d="M453.691 323.125C455.295 323.824 459.224 323.738 459.224 323.738C459.267 323.738 458.384 321.17 458.309 321.02C457.447 319.226 454.724 316.25 452.507 316.551C450.913 316.766 450.02 318.366 450.386 319.86C450.752 321.396 452.324 322.535 453.691 323.125Z" fill="#263238"/>
<path d="M493.422 323.996C493.455 324.017 494.133 321.396 494.165 321.224C494.445 319.247 493.81 315.273 491.797 314.295C490.344 313.597 488.718 314.435 488.191 315.885C487.653 317.367 488.331 319.183 489.149 320.44C490.096 321.901 493.422 323.996 493.422 323.996Z" fill="#263238"/>
<path d="M505.145 309.783C502.917 309.547 500.279 312.587 499.461 314.413C499.386 314.574 498.578 317.163 498.622 317.163H498.665C498.245 317.636 497.793 318.152 497.319 318.732C496.447 319.795 495.478 321.009 494.509 322.406C493.541 323.791 492.518 325.328 491.592 327.046C490.667 328.765 489.773 330.613 489.095 332.643C489.084 332.665 489.084 332.686 489.073 332.719C489.084 332.063 489.052 330.237 489.041 330.097C488.783 328.121 487.125 324.447 484.918 324.039C483.336 323.748 481.99 324.984 481.861 326.52C481.732 328.089 482.873 329.668 483.982 330.656C485.241 331.773 488.718 332.858 488.998 332.944C488.374 334.878 487.9 336.919 487.523 339.014C487.308 340.206 487.136 341.42 486.964 342.634C486.953 342.065 486.942 341.56 486.931 341.495C486.673 339.519 485.015 335.845 482.809 335.436C481.226 335.146 479.881 336.382 479.751 337.918C479.622 339.486 480.763 341.066 481.872 342.054C483.002 343.064 485.952 344.041 486.738 344.299C486.684 344.761 486.619 345.234 486.565 345.696C486.296 347.941 486.038 350.175 485.715 352.356C485.607 353.13 485.467 353.882 485.327 354.634C485.317 354.129 485.306 353.71 485.295 353.645C485.037 351.669 483.379 347.995 481.172 347.586C479.59 347.296 478.244 348.532 478.115 350.068C477.986 351.636 479.127 353.216 480.236 354.204C481.312 355.16 484.025 356.095 484.961 356.395C484.8 357.169 484.639 357.932 484.445 358.673C484.305 359.178 484.197 359.672 484.025 360.166C483.863 360.66 483.702 361.154 483.551 361.638C483.218 362.562 482.873 363.518 482.529 364.409C482.292 365.032 482.055 365.623 481.807 366.214C481.926 365.451 482.13 363.947 482.141 363.819C482.173 362.497 481.7 360.338 480.763 358.823C480.774 358.63 480.753 358.436 480.731 358.243C480.483 356.718 479.052 355.59 477.491 355.998C475.327 356.567 473.96 360.359 473.852 362.347C473.842 362.465 473.928 363.743 473.982 364.549C473.874 364.076 473.777 363.625 473.659 363.142C473.433 362.186 473.174 361.24 472.905 360.22C472.755 359.736 472.604 359.242 472.453 358.748C472.313 358.254 472.109 357.749 471.926 357.233C471.495 356.062 471.011 354.902 470.483 353.742C471.323 353.538 474.283 352.786 475.467 351.873C476.651 350.97 477.911 349.488 477.9 347.909C477.889 346.362 476.64 345.03 475.037 345.202C472.808 345.438 470.882 348.983 470.483 350.927C470.462 351.046 470.322 352.485 470.268 353.269C469.945 352.571 469.633 351.883 469.288 351.185C468.298 349.187 467.222 347.2 466.167 345.202C465.844 344.589 465.532 343.977 465.209 343.365C465.51 343.3 469.052 342.473 470.376 341.452C471.56 340.55 472.819 339.067 472.808 337.488C472.798 335.941 471.549 334.609 469.945 334.781C467.717 335.018 465.79 338.563 465.381 340.507C465.349 340.657 465.166 342.72 465.144 343.246C464.444 341.904 463.755 340.55 463.131 339.196C462.27 337.327 461.527 335.447 460.946 333.567C461.086 333.535 464.789 332.697 466.145 331.655C467.329 330.753 468.589 329.27 468.578 327.691C468.567 326.144 467.318 324.812 465.715 324.984C463.486 325.22 461.559 328.765 461.161 330.71C461.14 330.839 460.989 332.407 460.935 333.159C460.86 333.17 460.881 333.17 460.806 333.17C460.203 331.15 459.88 329.12 459.665 327.208C459.536 326.101 459.482 325.027 459.45 323.996C460.149 323.91 463.368 323.48 464.703 322.674C465.984 321.901 467.394 320.569 467.555 319C467.717 317.464 466.619 316.003 465.015 315.992C462.776 315.992 460.472 319.29 459.848 321.192C459.816 321.299 459.59 322.384 459.439 323.179C459.428 322.706 459.417 322.223 459.417 321.772C459.417 320.085 459.525 318.538 459.633 317.163C459.697 316.39 459.773 315.681 459.848 315.025C460.494 314.585 463.088 312.759 463.885 311.459C464.66 310.191 465.295 308.354 464.713 306.883C464.143 305.443 462.496 304.648 461.064 305.389C459.073 306.41 458.556 310.406 458.879 312.372C458.911 312.544 459.654 315.154 459.697 315.122C459.697 315.122 459.73 315.101 459.74 315.101C459.654 315.734 459.568 316.411 459.482 317.153C459.342 318.517 459.202 320.075 459.17 321.761C459.127 323.458 459.127 325.295 459.299 327.24C459.471 329.184 459.751 331.225 460.311 333.288C460.322 333.309 460.322 333.331 460.332 333.363C459.977 332.815 458.944 331.301 458.847 331.193C457.544 329.689 454.121 327.541 452.065 328.411C450.58 329.045 450.149 330.817 450.892 332.171C451.656 333.557 453.475 334.233 454.95 334.448C456.619 334.695 460.117 333.675 460.397 333.589C460.946 335.544 461.678 337.51 462.517 339.454C463.002 340.571 463.519 341.678 464.057 342.774C463.734 342.301 463.443 341.893 463.4 341.839C462.098 340.335 458.675 338.187 456.619 339.057C455.133 339.691 454.703 341.463 455.445 342.806C456.21 344.192 458.029 344.868 459.503 345.083C461 345.298 464.003 344.493 464.8 344.278C465.015 344.697 465.219 345.126 465.424 345.545C466.436 347.565 467.458 349.574 468.406 351.572C468.739 352.281 469.041 352.979 469.342 353.688C469.062 353.269 468.815 352.925 468.772 352.882C467.469 351.379 464.046 349.23 461.99 350.1C460.505 350.734 460.074 352.507 460.817 353.849C461.581 355.235 463.4 355.912 464.875 356.127C466.307 356.331 469.084 355.622 470.031 355.353C470.322 356.084 470.612 356.814 470.86 357.545C471.021 358.039 471.204 358.512 471.334 359.017C471.474 359.521 471.613 360.016 471.753 360.499C471.979 361.455 472.227 362.433 472.421 363.378C472.561 364.023 472.69 364.646 472.819 365.279C472.496 364.57 471.84 363.206 471.764 363.099C470.698 361.412 467.652 358.769 465.488 359.328C463.928 359.726 463.228 361.412 463.755 362.862C464.294 364.345 465.994 365.29 467.426 365.731C468.998 366.214 472.475 365.774 472.916 365.709C473.121 366.751 473.314 367.761 473.486 368.717C473.852 370.812 474.132 372.692 474.348 374.293H465.532V392.802H488.707V374.293H479.741C480.322 373.003 480.957 371.542 481.624 369.92C482.033 368.932 482.453 367.858 482.873 366.751C483.293 366.837 486.738 367.535 488.341 367.181C489.795 366.848 491.56 366.031 492.217 364.592C492.852 363.185 492.281 361.455 490.753 360.939C488.632 360.23 485.392 362.637 484.208 364.237C484.133 364.334 483.497 365.441 483.099 366.15C483.271 365.698 483.433 365.258 483.605 364.796C483.939 363.872 484.251 362.948 484.595 361.949C484.746 361.466 484.886 360.972 485.037 360.467C485.198 359.973 485.295 359.436 485.435 358.92C485.726 357.706 485.952 356.471 486.167 355.224C486.974 355.514 489.859 356.524 491.356 356.417C492.841 356.309 494.714 355.762 495.575 354.44C496.415 353.151 496.113 351.346 494.682 350.605C492.69 349.585 489.127 351.464 487.706 352.872C487.62 352.958 486.716 354.086 486.232 354.709C486.35 353.957 486.468 353.205 486.565 352.431C486.845 350.218 487.05 347.962 487.265 345.728C487.33 345.04 487.405 344.353 487.48 343.676C487.771 343.783 491.173 345.051 492.852 344.933C494.337 344.826 496.21 344.278 497.071 342.967C497.911 341.678 497.61 339.873 496.178 339.132C494.187 338.111 490.624 339.991 489.203 341.399C489.095 341.506 487.803 343.128 487.491 343.547C487.653 342.043 487.825 340.539 488.051 339.067C488.363 337.037 488.794 335.06 489.343 333.17C489.472 333.223 493.024 334.556 494.736 334.437C496.221 334.33 498.094 333.782 498.955 332.461C499.795 331.172 499.493 329.367 498.062 328.626C496.07 327.605 492.507 329.485 491.097 330.892C491 330.989 490.021 332.214 489.558 332.815C489.493 332.783 489.504 332.794 489.439 332.762C490.053 330.753 490.903 328.873 491.786 327.165C492.292 326.166 492.841 325.252 493.39 324.361C494.025 324.672 496.942 326.09 498.503 326.155C499.999 326.219 501.915 325.876 502.917 324.662C503.896 323.469 503.799 321.643 502.454 320.751C500.591 319.516 496.835 320.998 495.274 322.245C495.188 322.309 494.402 323.093 493.831 323.673C494.09 323.276 494.337 322.868 494.585 322.492C495.521 321.084 496.469 319.849 497.308 318.775C497.793 318.162 498.245 317.614 498.675 317.11C499.461 317.099 502.626 317.002 504.015 316.347C505.36 315.713 506.91 314.531 507.233 312.995C507.674 311.534 506.749 309.955 505.145 309.783ZM480.516 369.437C479.708 371.285 478.944 372.928 478.266 374.325H475.919C475.661 372.67 475.327 370.715 474.897 368.513C474.692 367.46 474.445 366.332 474.186 365.183C474.445 365.075 475.93 364.485 477.243 363.743C478.384 364.979 481.323 366.429 481.7 366.612C481.302 367.6 480.903 368.545 480.516 369.437Z" fill="#263238"/>
<path d="M38.7312 400.719L51.218 520.113" stroke="#263238" stroke-width="2" stroke-miterlimit="10"/>
<path d="M49.205 497.264L43.5428 491.291" stroke="#263238" stroke-width="2" stroke-miterlimit="10"/>
<path d="M45.2652 493.085C45.2652 493.085 45.4267 490.442 43.0154 488.293C41.5622 486.994 33.9195 483.792 33.1875 486.478C32.4017 489.4 40.2274 495.136 45.2652 493.085Z" fill="#2E5CFF" stroke="#263238" stroke-miterlimit="10"/>
<path d="M45.2652 493.085L37.9884 488.551" stroke="#263238" stroke-width="0.5" stroke-miterlimit="10"/>
<path d="M50.6259 510.842L44.9637 504.869" stroke="#263238" stroke-width="2" stroke-miterlimit="10"/>
<path d="M46.6861 506.663C46.6861 506.663 46.8476 504.021 44.4363 501.872C42.9831 500.572 35.3404 497.371 34.6084 500.057C33.8226 502.979 41.6483 508.715 46.6861 506.663Z" fill="#2E5CFF" stroke="#263238" stroke-miterlimit="10"/>
<path d="M46.6861 506.663L39.4093 502.13" stroke="#263238" stroke-width="0.5" stroke-miterlimit="10"/>
<path d="M45.7388 464.133L40.0767 458.16" stroke="#263238" stroke-width="2" stroke-miterlimit="10"/>
<path d="M41.799 459.954C41.799 459.954 41.9605 457.312 39.5493 455.163C38.0961 453.863 30.4533 450.662 29.7213 453.348C28.9355 456.27 36.7613 462.006 41.799 459.954Z" fill="#2E5CFF" stroke="#263238" stroke-miterlimit="10"/>
<path d="M41.799 459.954L34.5222 455.421" stroke="#263238" stroke-width="0.5" stroke-miterlimit="10"/>
<path d="M47.1597 477.712L41.4976 471.739" stroke="#263238" stroke-width="2" stroke-miterlimit="10"/>
<path d="M43.2199 473.533C43.2199 473.533 43.3814 470.89 40.9702 468.742C39.5169 467.442 31.8742 464.241 31.1422 466.926C30.3564 469.838 38.1822 475.585 43.2199 473.533Z" fill="#2E5CFF" stroke="#263238" stroke-miterlimit="10"/>
<path d="M43.2199 473.533L35.9431 469" stroke="#263238" stroke-width="0.5" stroke-miterlimit="10"/>
<path d="M43.4352 442.068L37.7731 436.106" stroke="#263238" stroke-width="2" stroke-miterlimit="10"/>
<path d="M39.4954 437.9C39.4954 437.9 39.6569 435.257 37.2457 433.109C35.7925 431.809 28.1497 428.607 27.4177 431.293C26.6319 434.204 34.4577 439.952 39.4954 437.9Z" fill="#2E5CFF" stroke="#263238" stroke-miterlimit="10"/>
<path d="M39.4954 437.9L32.2186 433.366" stroke="#263238" stroke-width="0.5" stroke-miterlimit="10"/>
<path d="M41.1208 419.917L35.4587 413.954" stroke="#263238" stroke-width="2" stroke-miterlimit="10"/>
<path d="M37.1811 415.738C37.1811 415.738 37.3426 413.095 34.9313 410.946C33.4781 409.647 25.8354 406.445 25.1034 409.131C24.3176 412.053 32.1433 417.8 37.1811 415.738Z" fill="#2E5CFF" stroke="#263238" stroke-miterlimit="10"/>
<path d="M37.1811 415.738L29.9043 411.215" stroke="#263238" stroke-width="0.5" stroke-miterlimit="10"/>
<path d="M48.2577 489.228L52.5635 482.224" stroke="#263238" stroke-width="2" stroke-miterlimit="10"/>
<path d="M51.2503 484.329C51.2503 484.329 50.5506 481.783 52.4666 479.173C53.6184 477.604 60.4324 472.888 61.7026 475.37C63.0696 478.066 56.6002 485.296 51.2503 484.329Z" fill="#2E5CFF" stroke="#263238" stroke-miterlimit="10"/>
<path d="M51.2502 484.329L57.795 478.077" stroke="#263238" stroke-width="0.5" stroke-miterlimit="10"/>
<path d="M44.5225 453.498L48.8175 446.494" stroke="#263238" stroke-width="2" stroke-miterlimit="10"/>
<path d="M47.5042 448.599C47.5042 448.599 46.8045 446.053 48.7206 443.443C49.8723 441.874 56.6863 437.158 57.9565 439.64C59.3343 442.336 52.8649 449.566 47.5042 448.599Z" fill="#2E5CFF" stroke="#263238" stroke-miterlimit="10"/>
<path d="M47.5043 448.599L54.0598 442.347" stroke="#263238" stroke-width="0.5" stroke-miterlimit="10"/>
<path d="M42.8755 437.792L47.1813 430.788" stroke="#263238" stroke-width="2" stroke-miterlimit="10"/>
<path d="M45.8681 432.894C45.8681 432.894 45.1684 430.348 47.0844 427.737C48.2362 426.169 55.0501 421.453 56.3204 423.934C57.6982 426.641 51.2288 433.871 45.8681 432.894Z" fill="#2E5CFF" stroke="#263238" stroke-miterlimit="10"/>
<path d="M45.868 432.894L52.4236 426.641" stroke="#263238" stroke-width="0.5" stroke-miterlimit="10"/>
<path d="M40.4644 414.782L44.7701 407.777" stroke="#263238" stroke-width="2" stroke-miterlimit="10"/>
<path d="M43.4568 409.872C43.4568 409.872 42.7571 407.326 44.6732 404.716C45.825 403.147 52.6389 398.431 53.9091 400.913C55.287 403.62 48.8175 410.85 43.4568 409.872Z" fill="#2E5CFF" stroke="#263238" stroke-miterlimit="10"/>
<path d="M43.4568 409.872L50.0123 403.62" stroke="#263238" stroke-width="0.5" stroke-miterlimit="10"/>
<path d="M38.6236 400.064C38.6236 400.064 37.9239 397.518 39.8399 394.908C40.9917 393.339 47.8056 388.623 49.0758 391.105C50.4537 393.801 43.9843 401.031 38.6236 400.064Z" fill="#2E5CFF" stroke="#263238" stroke-miterlimit="10"/>
<path d="M38.6237 400.064L45.1792 393.812" stroke="#263238" stroke-width="0.5" stroke-miterlimit="10"/>
<path d="M39.0111 400.333C39.0111 400.333 36.3954 400.762 34.0056 398.592C32.5632 397.282 28.5804 390.02 31.1854 389.031C34.0164 387.936 40.5397 395.112 39.0111 400.333Z" fill="#2E5CFF" stroke="#263238" stroke-miterlimit="10"/>
<path d="M39.0111 400.333L33.4674 393.167" stroke="#263238" stroke-width="0.5" stroke-miterlimit="10"/>
<path d="M71.6597 417.166L59.2483 536.56" stroke="#263238" stroke-width="2" stroke-miterlimit="10"/>
<path d="M61.9932 513.786L57.6874 506.781" stroke="#263238" stroke-width="2" stroke-miterlimit="10"/>
<path d="M59.0007 508.887C59.0007 508.887 59.7003 506.341 57.7843 503.731C56.6325 502.162 49.8078 497.457 48.5484 499.938C47.1705 502.635 53.64 509.865 59.0007 508.887Z" fill="#2E5CFF" stroke="#263238" stroke-miterlimit="10"/>
<path d="M59.0006 508.887L52.811 502.968" stroke="#263238" stroke-width="0.5" stroke-miterlimit="10"/>
<path d="M65.4377 480.655L61.132 473.651" stroke="#263238" stroke-width="2" stroke-miterlimit="10"/>
<path d="M62.4452 475.757C62.4452 475.757 63.1449 473.211 61.2289 470.6C60.0771 469.032 53.2524 464.327 51.9929 466.808C50.6151 469.505 57.0845 476.724 62.4452 475.757Z" fill="#2E5CFF" stroke="#263238" stroke-miterlimit="10"/>
<path d="M62.4452 475.757L56.2556 469.827" stroke="#263238" stroke-width="0.5" stroke-miterlimit="10"/>
<path d="M64.0276 494.234L59.7218 487.23" stroke="#263238" stroke-width="2" stroke-miterlimit="10"/>
<path d="M61.0351 489.335C61.0351 489.335 61.7348 486.789 59.8187 484.179C58.6669 482.611 51.8422 477.905 50.5828 480.387C49.2049 483.083 55.6744 490.302 61.0351 489.335Z" fill="#2E5CFF" stroke="#263238" stroke-miterlimit="10"/>
<path d="M61.035 489.335L54.8455 483.406" stroke="#263238" stroke-width="0.5" stroke-miterlimit="10"/>
<path d="M67.7306 458.59L63.4248 451.597" stroke="#263238" stroke-width="2" stroke-miterlimit="10"/>
<path d="M64.7381 453.691C64.7381 453.691 65.4378 451.145 63.5217 448.535C62.3699 446.966 55.5452 442.261 54.2858 444.743C52.9079 447.45 59.3774 454.669 64.7381 453.691Z" fill="#2E5CFF" stroke="#263238" stroke-miterlimit="10"/>
<path d="M64.738 453.691L58.5485 447.772" stroke="#263238" stroke-width="0.5" stroke-miterlimit="10"/>
<path d="M70.0342 436.439L65.7284 429.445" stroke="#263238" stroke-width="2" stroke-miterlimit="10"/>
<path d="M67.0417 431.54C67.0417 431.54 67.7414 428.994 65.8253 426.384C64.6735 424.815 57.8488 420.11 56.5894 422.591C55.2115 425.288 61.681 432.518 67.0417 431.54Z" fill="#2E5CFF" stroke="#263238" stroke-miterlimit="10"/>
<path d="M67.0416 431.54L60.8521 425.621" stroke="#263238" stroke-width="0.5" stroke-miterlimit="10"/>
<path d="M62.7252 505.729L68.3766 499.756" stroke="#263238" stroke-width="2" stroke-miterlimit="10"/>
<path d="M66.6542 501.55C66.6542 501.55 66.4928 498.907 68.904 496.759C70.3572 495.459 78 492.247 78.732 494.932C79.5178 497.854 71.7028 503.602 66.6542 501.55Z" fill="#2E5CFF" stroke="#263238" stroke-miterlimit="10"/>
<path d="M66.6543 501.55L74.3617 496.78" stroke="#263238" stroke-width="0.5" stroke-miterlimit="10"/>
<path d="M66.439 469.999L72.0903 464.026" stroke="#263238" stroke-width="2" stroke-miterlimit="10"/>
<path d="M70.368 465.82C70.368 465.82 70.2065 463.177 72.6177 461.029C74.071 459.729 81.7137 456.517 82.4457 459.202C83.2315 462.124 75.4165 467.872 70.368 465.82Z" fill="#2E5CFF" stroke="#263238" stroke-miterlimit="10"/>
<path d="M70.368 465.82L78.0754 461.05" stroke="#263238" stroke-width="0.5" stroke-miterlimit="10"/>
<path d="M68.0643 454.293L73.7264 448.32" stroke="#263238" stroke-width="2" stroke-miterlimit="10"/>
<path d="M72.0041 450.114C72.0041 450.114 71.8426 447.471 74.2539 445.323C75.7071 444.023 83.3498 440.811 84.0818 443.497C84.8676 446.419 77.0419 452.166 72.0041 450.114Z" fill="#2E5CFF" stroke="#263238" stroke-miterlimit="10"/>
<path d="M72.0042 450.114L79.7115 445.344" stroke="#263238" stroke-width="0.5" stroke-miterlimit="10"/>
<path d="M70.4648 431.272L76.1162 425.309" stroke="#263238" stroke-width="2" stroke-miterlimit="10"/>
<path d="M74.4046 427.093C74.4046 427.093 74.2431 424.45 76.6544 422.301C78.1076 421.002 85.7503 417.789 86.4823 420.475C87.2681 423.397 79.4424 429.144 74.4046 427.093Z" fill="#2E5CFF" stroke="#263238" stroke-miterlimit="10"/>
<path d="M74.4045 427.093L82.1011 422.323" stroke="#263238" stroke-width="0.5" stroke-miterlimit="10"/>
<path d="M71.6919 416.49C71.6919 416.49 71.5305 413.847 73.9417 411.698C75.3949 410.399 83.0377 407.187 83.7697 409.872C84.5555 412.805 76.7405 418.541 71.6919 416.49Z" fill="#2E5CFF" stroke="#263238" stroke-miterlimit="10"/>
<path d="M71.6919 416.49L79.3993 411.72" stroke="#263238" stroke-width="0.5" stroke-miterlimit="10"/>
<path d="M72.0149 416.833C72.0149 416.833 69.3668 416.715 67.4723 414.094C66.3312 412.515 63.9308 404.598 66.6865 404.157C69.679 403.684 74.5876 412.042 72.0149 416.833Z" fill="#2E5CFF" stroke="#263238" stroke-miterlimit="10"/>
<path d="M72.0149 416.833L68.0643 408.69" stroke="#263238" stroke-width="0.5" stroke-miterlimit="10"/>
<path d="M57.4398 368.545V519.533" stroke="#263238" stroke-width="2" stroke-miterlimit="10"/>
<path d="M57.5582 496.823L52.5527 490.302" stroke="#263238" stroke-width="2" stroke-miterlimit="10"/>
<path d="M54.0705 492.257C54.0705 492.257 54.5011 489.647 52.3267 487.262C51.0134 485.823 43.7474 481.837 42.7463 484.437C41.6591 487.262 48.8498 493.783 54.0705 492.257Z" fill="#2E5CFF" stroke="#263238" stroke-miterlimit="10"/>
<path d="M54.0705 492.257L47.2997 487.004" stroke="#263238" stroke-width="0.5" stroke-miterlimit="10"/>
<path d="M57.5582 468.452L52.5527 461.931" stroke="#263238" stroke-width="2" stroke-miterlimit="10"/>
<path d="M54.0705 463.886C54.0705 463.886 54.5011 461.276 52.3267 458.891C51.0134 457.451 43.7474 453.466 42.7463 456.066C41.6591 458.891 48.8498 465.412 54.0705 463.886Z" fill="#2E5CFF" stroke="#263238" stroke-miterlimit="10"/>
<path d="M54.0705 463.886L47.2997 458.633" stroke="#263238" stroke-width="0.5" stroke-miterlimit="10"/>
<path d="M57.5582 435.139L52.5527 428.618" stroke="#263238" stroke-width="2" stroke-miterlimit="10"/>
<path d="M54.0705 430.573C54.0705 430.573 54.5011 427.963 52.3267 425.578C51.0134 424.138 43.7474 420.153 42.7463 422.753C41.6591 425.578 48.8498 432.099 54.0705 430.573Z" fill="#2E5CFF" stroke="#263238" stroke-miterlimit="10"/>
<path d="M54.0705 430.573L47.2997 425.32" stroke="#263238" stroke-width="0.5" stroke-miterlimit="10"/>
<path d="M57.5582 412.966L52.5527 406.445" stroke="#263238" stroke-width="2" stroke-miterlimit="10"/>
<path d="M54.0705 408.4C54.0705 408.4 54.5011 405.79 52.3267 403.405C51.0134 401.966 43.7474 397.98 42.7463 400.58C41.6591 403.405 48.8498 409.926 54.0705 408.4Z" fill="#2E5CFF" stroke="#263238" stroke-miterlimit="10"/>
<path d="M54.0705 408.4L47.2997 403.147" stroke="#263238" stroke-width="0.5" stroke-miterlimit="10"/>
<path d="M57.5582 390.697L52.5527 384.176" stroke="#263238" stroke-width="2" stroke-miterlimit="10"/>
<path d="M54.0705 386.131C54.0705 386.131 54.5011 383.521 52.3267 381.136C51.0134 379.696 43.7474 375.711 42.7463 378.311C41.6591 381.125 48.8498 387.646 54.0705 386.131Z" fill="#2E5CFF" stroke="#263238" stroke-miterlimit="10"/>
<path d="M54.0705 386.131L47.2997 380.867" stroke="#263238" stroke-width="0.5" stroke-miterlimit="10"/>
<path d="M57.4506 505.492L62.456 498.972" stroke="#263238" stroke-width="2" stroke-miterlimit="10"/>
<path d="M60.9275 500.927C60.9275 500.927 60.4969 498.316 62.6713 495.931C63.9846 494.492 71.2506 490.506 72.2517 493.106C73.3389 495.931 66.159 502.452 60.9275 500.927Z" fill="#2E5CFF" stroke="#263238" stroke-miterlimit="10"/>
<path d="M60.9275 500.927L68.0966 495.384" stroke="#263238" stroke-width="0.5" stroke-miterlimit="10"/>
<path d="M57.4506 460.363L62.456 453.842" stroke="#263238" stroke-width="2" stroke-miterlimit="10"/>
<path d="M60.9275 455.797C60.9275 455.797 60.4969 453.186 62.6713 450.802C63.9846 449.362 71.2506 445.377 72.2517 447.976C73.3389 450.802 66.159 457.322 60.9275 455.797Z" fill="#2E5CFF" stroke="#263238" stroke-miterlimit="10"/>
<path d="M60.9275 455.797L68.0966 450.264" stroke="#263238" stroke-width="0.5" stroke-miterlimit="10"/>
<path d="M57.4506 438.093L62.456 431.572" stroke="#263238" stroke-width="2" stroke-miterlimit="10"/>
<path d="M60.9275 433.527C60.9275 433.527 60.4969 430.917 62.6713 428.532C63.9846 427.093 71.2506 423.107 72.2517 425.707C73.3389 428.532 66.159 435.053 60.9275 433.527Z" fill="#2E5CFF" stroke="#263238" stroke-miterlimit="10"/>
<path d="M60.9275 433.527L68.0966 427.984" stroke="#263238" stroke-width="0.5" stroke-miterlimit="10"/>
<path d="M57.4506 408.648L62.456 402.138" stroke="#263238" stroke-width="2" stroke-miterlimit="10"/>
<path d="M60.9275 404.093C60.9275 404.093 60.4969 401.482 62.6713 399.097C63.9846 397.658 71.2506 393.672 72.2517 396.272C73.3389 399.087 66.159 405.607 60.9275 404.093Z" fill="#2E5CFF" stroke="#263238" stroke-miterlimit="10"/>
<path d="M60.9275 404.093L68.0966 398.549" stroke="#263238" stroke-width="0.5" stroke-miterlimit="10"/>
<path d="M57.4507 385.508L62.4562 378.987" stroke="#263238" stroke-width="2" stroke-miterlimit="10"/>
<path d="M60.9275 380.942C60.9275 380.942 60.4969 378.332 62.6713 375.947C63.9846 374.507 71.2506 370.522 72.2517 373.122C73.3389 375.947 66.159 382.468 60.9275 380.942Z" fill="#2E5CFF" stroke="#263238" stroke-miterlimit="10"/>
<path d="M60.9275 380.942L68.0966 375.41" stroke="#263238" stroke-width="0.5" stroke-miterlimit="10"/>
<path d="M57.1492 370.683C57.1492 370.683 56.7186 368.073 58.893 365.688C60.2063 364.248 67.4723 360.263 68.4734 362.862C69.5606 365.677 62.3699 372.198 57.1492 370.683Z" fill="#2E5CFF" stroke="#263238" stroke-miterlimit="10"/>
<path d="M57.1492 370.683L64.3183 365.14" stroke="#263238" stroke-width="0.5" stroke-miterlimit="10"/>
<path d="M57.4936 370.984C57.4936 370.984 54.8456 371.145 52.6927 368.728C51.401 367.278 48.1931 359.64 50.8843 358.92C53.8122 358.146 59.5604 365.956 57.4936 370.984Z" fill="#2E5CFF" stroke="#263238" stroke-miterlimit="10"/>
<path d="M57.4936 370.984L52.725 363.292" stroke="#263238" stroke-width="0.5" stroke-miterlimit="10"/>
<path d="M63.6617 558.69H47.6334L45.6312 518.308H65.6639L63.6617 558.69Z" fill="#263238" stroke="#263238" stroke-miterlimit="10"/>
<path d="M131.962 249.495H35.7063V96.5633H154.88V249.495H138.227" stroke="#263238" stroke-miterlimit="10"/>
<path d="M150.563 102.107H40.0336V243.941H150.563V102.107Z" stroke="#263238" stroke-miterlimit="10"/>
<path d="M62.1761 140.963C64.0276 142.671 66.1052 144.336 68.4411 145.915C93.4469 162.845 135.859 154.821 150.143 178.884" stroke="#263238" stroke-miterlimit="10"/>
<path d="M47.4503 102.697C47.4503 102.697 44.5439 121.712 59.0544 137.815" stroke="#263238" stroke-miterlimit="10"/>
<path d="M56.9231 180.828C69.1192 174.404 84.9107 169.839 92.9948 182.891C102.371 198.038 59.0652 224.777 59.0652 243.931" stroke="#263238" stroke-miterlimit="10"/>
<path d="M40.3135 191.808C40.3135 191.808 45.8787 187.167 53.5538 182.698" stroke="#263238" stroke-miterlimit="10"/>
<path d="M97.9034 102.697C97.9034 102.697 113.975 127.652 150.585 120.96" stroke="#263238" stroke-miterlimit="10"/>
<path d="M102.704 127.201C102.78 127.781 102.812 128.383 102.812 128.985C102.812 137.106 96.2134 143.691 88.0754 143.691C79.9375 143.691 73.3389 137.106 73.3389 128.985C73.3389 120.863 79.9375 114.278 88.0754 114.278C93.7268 114.278 98.6354 117.447 101.1 122.109" stroke="#263238" stroke-miterlimit="10"/>
<path d="M139.422 148.805C139.422 152.618 136.322 155.712 132.5 155.712C128.679 155.712 125.579 152.618 125.579 148.805C125.579 144.991 128.679 141.897 132.5 141.897C136.322 141.897 139.422 144.991 139.422 148.805Z" stroke="#263238" stroke-miterlimit="10"/>
<path d="M139.519 195.396C143.469 196.427 147.097 198.275 150.186 200.767" stroke="#263238" stroke-miterlimit="10"/>
<path d="M112.995 244.027C107.29 238.817 103.705 231.319 103.705 222.993C103.705 207.245 116.494 194.482 132.274 194.482C132.823 194.482 133.372 194.493 133.921 194.525" stroke="#263238" stroke-miterlimit="10"/>
<path d="M354.701 558.69H525.856" stroke="#263238" stroke-miterlimit="10"/>
<path d="M25.3079 558.69H346.089" stroke="#263238" stroke-miterlimit="10"/>
<path d="M433.852 105.888H216.592V507.544H433.852V105.888Z" fill="white"/>
<path d="M440.375 184.911C441.86 184.911 443.055 183.707 443.055 182.236V155.444C443.055 153.961 441.85 152.769 440.375 152.769C440.203 152.769 440.03 152.79 439.869 152.822V102.73C439.869 93.1901 432.119 85.4661 422.571 85.4661H231.878C222.319 85.4661 214.579 93.2008 214.579 102.73V506.964C214.579 516.504 222.33 524.227 231.878 524.227H422.571C432.129 524.227 439.869 516.493 439.869 506.964V261.033C440.03 261.065 440.203 261.087 440.375 261.087C441.86 261.087 443.055 259.884 443.055 258.412V231.63C443.055 230.148 441.85 228.955 440.375 228.955C440.203 228.955 440.03 228.977 439.869 229.009V222.961C440.03 222.993 440.203 223.015 440.375 223.015C441.86 223.015 443.055 221.812 443.055 220.34V193.558C443.055 192.076 441.85 190.884 440.375 190.884C440.203 190.884 440.03 190.905 439.869 190.937V184.889C440.03 184.889 440.203 184.911 440.375 184.911ZM429.847 498.187H224.59V115.255H429.847V498.187Z" fill="#263238"/>
<path d="M422.872 119.23H405.853V128.544H422.872V119.23Z" stroke="#263238" stroke-width="0.8211" stroke-miterlimit="10" stroke-linecap="round" stroke-linejoin="round"/>
<path d="M419.126 119.23H405.853V128.544H419.126V119.23Z" fill="#263238" stroke="#263238" stroke-width="0.7251" stroke-miterlimit="10" stroke-linecap="round" stroke-linejoin="round"/>
<path d="M425.229 121.83H422.829V125.934H425.229V121.83Z" fill="#263238" stroke="#263238" stroke-width="0.7251" stroke-miterlimit="10" stroke-linecap="round" stroke-linejoin="round"/>
<path d="M232.341 122.12H229.219V127.459H232.341V122.12Z" fill="#263238" stroke="#263238" stroke-width="0.8831" stroke-miterlimit="10" stroke-linecap="round" stroke-linejoin="round"/>
<path d="M237.239 120.24H234.117V127.448H237.239V120.24Z" fill="#263238" stroke="#263238" stroke-width="0.8831" stroke-miterlimit="10" stroke-linecap="round" stroke-linejoin="round"/>
<path d="M242.147 118.027H239.026V127.459H242.147V118.027Z" fill="#263238" stroke="#263238" stroke-width="0.8831" stroke-miterlimit="10" stroke-linecap="round" stroke-linejoin="round"/>
<path d="M425.014 133.722H227.906V185.416H425.014V133.722Z" fill="#2E5CFF"/>
<path d="M277.713 141.167V179.12" stroke="white" stroke-miterlimit="10"/>
<path d="M327.951 141.167V179.12" stroke="white" stroke-miterlimit="10"/>
<path d="M378.178 141.167V179.12" stroke="white" stroke-miterlimit="10"/>
<path opacity="0.15" d="M438.093 261.033C438.254 261.065 438.427 261.087 438.599 261.087C440.084 261.087 441.279 259.884 441.279 258.412V248.819L428.071 272.066V498.198H299.576L284.775 524.238H420.784C430.342 524.238 438.082 516.504 438.082 506.975V261.033H438.093Z" fill="white"/>
<path d="M267.508 218.181H234.707V254.295" stroke="#2E5CFF" stroke-width="2" stroke-miterlimit="10"/>
<path d="M386.844 218.181H419.646V254.295" stroke="#2E5CFF" stroke-width="2" stroke-miterlimit="10"/>
<path d="M267.508 463.22H234.707V427.093" stroke="#2E5CFF" stroke-width="2" stroke-miterlimit="10"/>
<path d="M386.844 463.22H419.646V427.093" stroke="#2E5CFF" stroke-width="2" stroke-miterlimit="10"/>
<path d="M199.068 275.439H190.101C188.519 275.439 187.227 274.16 187.227 272.571V247.508C187.227 245.929 188.508 244.64 190.101 244.64H199.068C200.65 244.64 201.942 245.918 201.942 247.508V272.571C201.931 274.16 200.65 275.439 199.068 275.439Z" fill="#263238" stroke="#263238" stroke-miterlimit="10"/>
<path d="M200.64 247.368H188.53V272.721H200.64V247.368Z" fill="white" stroke="#263238" stroke-miterlimit="10"/>
<path d="M70.1635 395.584C75.1366 395.692 79.507 393.747 82.3488 392.039C82.112 398.893 81.929 404.082 81.929 404.082C81.929 404.082 83.1131 406.144 83.7052 407.036C84.2972 407.928 89.3242 410.871 89.9163 413.535C90.5083 416.189 93.1671 417.671 92.8765 421.506C92.5858 425.342 89.3242 421.206 89.9163 422.097C90.5083 422.978 92.2844 425.932 92.2844 428.597C92.2844 431.261 86.6654 431.25 84.5878 429.477C82.5211 427.705 75.7072 423.569 75.1151 419.734L72.8223 411.172L70.1635 395.584Z" fill="#FFC3BD" stroke="#263238" stroke-miterlimit="10"/>
<path d="M82.4457 416.887L83.8774 423.333C83.8774 423.333 88.5384 426.91 88.9044 429.424" fill="#FFC3BD"/>
<path d="M82.4457 416.887L83.8774 423.333C83.8774 423.333 88.5384 426.91 88.9044 429.424" stroke="#263238" stroke-miterlimit="10"/>
<path d="M89.927 422.108L87.8279 417.961" stroke="#263238" stroke-miterlimit="10"/>
<path d="M105.708 553.071C105.708 553.071 104.028 566.897 105.331 568.573C106.644 570.249 108.7 572.312 111.693 572.688C114.685 573.064 119.745 571.377 119.745 571.377C119.745 571.377 124.793 572.87 130.229 572.312C135.654 571.753 139.217 569.701 139.583 567.08C139.96 564.469 135.278 563.341 132.662 560.538C130.046 557.734 125.87 552.771 125.87 552.771L124.804 549.14C124.804 549.14 118.442 552.319 114.319 552.502C110.196 552.685 107.398 551.943 107.398 551.943L105.708 553.071Z" fill="#455A64" stroke="black" stroke-miterlimit="10"/>
<path d="M139.583 567.08C139.627 566.758 139.594 566.446 139.497 566.167C138.249 566.682 136.666 567.295 134.718 568.014C129.099 570.066 126.3 568.39 123.491 568.39C120.681 568.39 120.498 571.377 112.64 569.325C107.505 567.982 105.568 566.242 104.847 565.2C104.857 566.854 104.997 568.133 105.342 568.573C106.655 570.249 108.711 572.312 111.704 572.688C114.696 573.063 119.755 571.377 119.755 571.377C119.755 571.377 124.804 572.87 130.24 572.312C135.654 571.753 139.207 569.701 139.583 567.08Z" fill="#455A64" stroke="black" stroke-miterlimit="10"/>
<path d="M95.7291 381.436C95.7291 381.436 88.1939 406.682 90.885 424.407C93.5762 442.132 106.494 475.434 106.494 475.434C106.494 475.434 104.879 487.788 104.879 492.086C104.879 496.383 101.111 504.44 103.802 513.034C106.494 521.628 106.494 544.187 106.494 545.799C106.494 547.41 105.417 556.004 105.417 556.004C105.417 556.004 107.57 559.227 115.643 559.227C123.717 559.227 125.87 552.781 125.87 552.781C125.87 552.781 133.943 504.977 133.943 497.457C133.943 489.937 142.554 462.006 145.784 450.726C149.013 439.447 152.953 432.271 155.106 428.511C157.259 424.751 156.01 379.288 156.01 379.288L94.6526 373.917L95.7291 381.436Z" fill="#263238" stroke="#263238" stroke-miterlimit="10"/>
<path d="M138.087 556.617C138.087 556.617 146.139 559.796 150.068 561.655C153.997 563.513 156.624 563.707 156.624 566.693C156.624 569.68 149.508 572.666 145.202 573.418C140.897 574.17 133.975 573.977 133.222 574.17C132.468 574.353 118.431 576.415 116.752 572.859C115.073 569.314 116.935 557.164 116.935 557.164C116.935 557.164 126.666 559.238 138.087 556.617Z" fill="#455A64" stroke="#263238" stroke-miterlimit="10"/>
<path d="M133.222 574.181C133.975 573.998 140.897 574.181 145.202 573.429C149.508 572.677 156.624 569.69 156.624 566.704C156.624 566.263 156.559 565.887 156.451 565.554C154.977 566.414 153.05 567.434 150.821 568.39C145.579 570.636 138.658 572.129 128.173 571.936C122.489 571.839 118.582 571.076 116.181 570.399C116.289 571.398 116.472 572.269 116.763 572.87C118.431 576.426 132.479 574.363 133.222 574.181Z" fill="#455A64" stroke="#263238" stroke-miterlimit="10"/>
<path d="M156.548 383.585C156.548 383.585 159.778 427.093 153.319 459.858C146.86 492.623 136.096 537.205 135.558 539.353C135.019 541.502 139.325 547.41 139.325 547.41V556.004C139.325 556.004 135.558 559.764 126.946 560.838C118.334 561.913 115.643 559.227 115.643 559.227C115.643 559.227 113.49 544.724 113.49 534.519C113.49 524.313 115.643 489.4 115.643 489.4C115.643 489.4 120.487 453.949 119.949 448.578C119.411 443.207 117.796 426.555 117.796 426.555L109.185 416.35" fill="#263238"/>
<path d="M156.548 383.585C156.548 383.585 159.778 427.093 153.319 459.858C146.86 492.623 136.096 537.205 135.558 539.353C135.019 541.502 139.325 547.41 139.325 547.41V556.004C139.325 556.004 135.558 559.764 126.946 560.838C118.334 561.913 115.643 559.227 115.643 559.227C115.643 559.227 113.49 544.724 113.49 534.519C113.49 524.313 115.643 489.4 115.643 489.4C115.643 489.4 120.487 453.949 119.949 448.578C119.411 443.207 117.796 426.555 117.796 426.555L109.185 416.35" stroke="#263238" stroke-miterlimit="10"/>
<path d="M66.0837 375.399L83.0162 372.434C82.9408 374.722 83.4145 360.263 83.4145 359.188C83.4145 356.825 89.0335 342.054 89.0335 342.054C89.0335 342.054 93.4685 361.251 93.4685 363.614C93.4685 365.978 91.6923 383.993 94.0605 386.357C96.4287 388.72 104.717 393.447 123.071 392.856C141.424 392.265 155.041 390.793 158.593 387.248C162.146 383.703 158.001 372.778 157.711 371.295C157.42 369.824 162.447 331.118 162.447 331.118C162.447 331.118 182.275 351.798 194.116 348.843C205.957 345.889 200.327 299.814 200.327 299.814L200.919 286.525C200.919 286.525 204.762 276.782 204.762 275.299C204.762 273.828 200.919 263.192 200.919 263.192C200.919 263.192 198.551 261.13 197.076 266.147C195.602 271.163 195.3 274.418 195.3 274.418C195.3 274.418 191.748 277.072 192.049 280.918C192.34 284.753 193.524 287.707 193.524 287.707L185.537 313.704C185.537 313.704 176.656 303.66 176.064 301.887C175.472 300.115 175.763 293.615 168.368 289.78C160.972 285.945 145.87 285.644 145.87 285.644L104.136 285.945C104.136 285.945 84.5985 287.718 80.1636 291.553C75.7286 295.388 62.1116 344.127 62.1116 351.518C62.1116 353.828 63.328 360.972 65.0072 369.834L66.0837 375.399Z" fill="#FFC3BD" stroke="#263238" stroke-miterlimit="10"/>
<path d="M200.919 263.182C200.919 263.182 200.037 270.562 200.629 272.044C201.221 273.516 201.813 277.061 201.221 280.015" stroke="#263238" stroke-miterlimit="10"/>
<path d="M194.116 348.843C205.957 345.889 200.327 299.814 200.327 299.814L200.457 296.827C197.087 294.41 193.793 294.378 191.264 295.012L185.526 313.693C185.526 313.693 176.646 303.649 176.053 301.876C175.461 300.104 175.752 293.605 168.357 289.77C160.962 285.934 145.859 285.634 145.859 285.634L104.125 285.934C104.125 285.934 84.5878 287.707 80.1528 291.542C75.7179 295.377 62.1008 344.117 62.1008 351.507C62.1008 355.89 66.4712 377.741 70.1634 395.585C75.1366 395.692 79.507 393.748 82.3488 392.039C82.7901 379.266 83.4145 360.725 83.4145 359.188C83.4145 356.825 89.0335 342.054 89.0335 342.054C89.0335 342.054 93.4685 361.251 93.4685 363.614C93.4685 365.978 91.6924 383.993 94.0605 386.357C96.4287 388.72 104.717 393.447 123.071 392.856C141.424 392.265 155.041 390.793 158.594 387.248C162.146 383.703 158.001 372.778 157.711 371.295C157.42 369.824 162.447 331.118 162.447 331.118C162.447 331.118 182.275 351.798 194.116 348.843Z" fill="#2E5CFF" stroke="#263238" stroke-miterlimit="10"/>
<path d="M83.2208 325.79L89.0336 342.054L77.0635 321.632" stroke="#263238" stroke-miterlimit="10"/>
<path d="M79.9376 316.615L81.9936 322.373" stroke="#263238" stroke-miterlimit="10"/>
<path d="M120.929 326.95C123.544 332.815 127.398 340.163 131.962 344.911" stroke="#263238" stroke-miterlimit="10"/>
<path d="M117.258 317.69C117.258 317.69 118.065 320.107 119.508 323.62" stroke="#263238" stroke-miterlimit="10"/>
<path d="M123.717 337.392C123.717 337.392 130.175 350.283 133.405 352.786" stroke="#263238" stroke-miterlimit="10"/>
<path d="M172.566 321.761L175.02 319.484" stroke="#263238" stroke-miterlimit="10"/>
<path d="M168.562 318.409L162.437 331.129L170.338 323.813" stroke="#263238" stroke-miterlimit="10"/>
<path d="M196.549 325.575C196.194 323.072 185.526 313.704 185.526 313.704C185.526 313.704 196.549 318.055 199.423 321.997" stroke="#263238" stroke-miterlimit="10"/>
<path d="M150.003 246.939C150.003 246.939 150.596 254.319 151.478 255.501C152.361 256.682 152.953 265.835 151.478 268.499C150.003 271.153 149.11 274.408 148.227 275.288C147.345 276.169 144.083 276.169 142.899 276.169C141.715 276.169 128.399 275.578 128.399 275.578L128.69 256.972C128.701 256.983 131.951 243.104 150.003 246.939Z" fill="#FFC3BD" stroke="#263238" stroke-miterlimit="10"/>
<path d="M126.332 226.259C126.332 226.259 114.201 230.094 111.531 240.729C108.872 251.365 117.452 263.472 117.452 263.472C117.452 263.472 119.82 272.033 121.887 273.806C123.953 275.579 132.242 273.806 134.912 273.215C137.571 272.624 143.491 256.671 143.491 256.671C143.491 256.671 143.491 260.507 145.267 260.507C147.043 260.507 146.742 255.49 146.742 254.598C146.742 253.717 155.031 247.508 155.031 236.873C155.031 226.238 145.859 221.511 137.269 222.102C128.701 222.714 126.332 226.259 126.332 226.259Z" fill="#263238" stroke="#263238" stroke-miterlimit="10"/>
<path d="M151.489 285.043C151.489 285.043 149.713 278.844 148.83 277.953C147.947 277.072 142.318 273.527 133.146 272.936C123.975 272.345 110.358 272.646 109.174 273.226C107.99 273.817 107.699 278.834 107.699 278.834C107.699 278.834 103.856 282.379 102.963 284.441C102.08 286.504 101.187 287.395 109.475 294.185C117.764 300.974 122.199 303.638 130.789 301.565C139.368 299.502 151.801 287.095 151.801 287.095L151.489 285.043Z" fill="#2E5CFF" stroke="#263238" stroke-miterlimit="10"/>
<path d="M130.315 289.222C138.561 286.643 147.043 281.498 147.043 281.498" stroke="#263238" stroke-miterlimit="10"/>
<path d="M107.678 280.026C107.678 280.026 113.006 290.661 122.479 290.661C123.674 290.661 124.965 290.511 126.3 290.264" stroke="#263238" stroke-miterlimit="10"/>
<g clip-path="url(#clip1_1_652)">
<path d="M401.577 443.528L327.681 440.972C324.64 440.865 321.593 440.872 318.545 440.986L249.716 443.528L252.764 347.355C252.878 343.712 252.878 340.062 252.757 336.412L249.716 245.672H401.577V443.528Z" fill="#263238" stroke="#263238" stroke-miterlimit="10" stroke-linecap="round" stroke-linejoin="round"/>
<path d="M404.011 242.277H252.15V440.134H404.011V242.277Z" fill="white" stroke="#263238" stroke-miterlimit="10" stroke-linecap="round" stroke-linejoin="round"/>
<path d="M393.919 296.194H262.249V428.827H393.919V296.194Z" fill="white" stroke="#263238" stroke-miterlimit="10" stroke-linecap="round" stroke-linejoin="round"/>
<path d="M263.484 276.373V252.127H270.642C272.105 252.127 273.297 252.397 274.21 252.937C275.124 253.477 275.795 254.258 276.223 255.288C276.651 256.317 276.873 257.56 276.873 259.016C276.873 260.593 276.601 261.864 276.059 262.837C275.516 263.803 274.76 264.506 273.789 264.946C272.819 265.386 271.67 265.606 270.342 265.606H267.937V276.387H263.484V276.373ZM267.937 262.482H269.621C270.421 262.482 271.049 262.368 271.505 262.141C271.955 261.914 272.269 261.544 272.44 261.033C272.612 260.522 272.697 259.84 272.697 258.98C272.697 258.1 272.633 257.39 272.505 256.843C272.376 256.296 272.091 255.891 271.663 255.628C271.234 255.366 270.556 255.238 269.628 255.238H267.944V262.482H267.937Z" fill="#2E5CFF"/>
<path d="M268.901 288.077L273.804 275.201L269.05 263.824H273.204L276.366 271.338L279.135 263.824H282.989L278.293 276.039L283.346 288.077H279.192L275.731 279.931L272.719 288.077H268.901Z" fill="#2E5CFF"/>
<path d="M337.194 259.605H393.484" stroke="#263238" stroke-miterlimit="10" stroke-linecap="round" stroke-linejoin="round"/>
<path d="M337.194 271.693H393.484" stroke="#263238" stroke-miterlimit="10" stroke-linecap="round" stroke-linejoin="round"/>
<path d="M349.342 266.452H393.484" stroke="#263238" stroke-miterlimit="10" stroke-linecap="round" stroke-linejoin="round"/>
<path d="M349.342 277.332H393.484" stroke="#263238" stroke-miterlimit="10" stroke-linecap="round" stroke-linejoin="round"/>
<path d="M266.731 310.781H310.873" stroke="#263238" stroke-miterlimit="10" stroke-linecap="round" stroke-linejoin="round"/>
<path d="M266.731 322.251H310.873" stroke="#263238" stroke-miterlimit="10" stroke-linecap="round" stroke-linejoin="round"/>
<path d="M266.731 316.711H333.547" stroke="#263238" stroke-miterlimit="10" stroke-linecap="round" stroke-linejoin="round"/>
<path d="M266.731 336.227H310.873" stroke="#263238" stroke-miterlimit="10" stroke-linecap="round" stroke-linejoin="round"/>
<path d="M266.731 347.696H310.873" stroke="#263238" stroke-miterlimit="10" stroke-linecap="round" stroke-linejoin="round"/>
<path d="M266.731 342.15H333.547" stroke="#263238" stroke-miterlimit="10" stroke-linecap="round" stroke-linejoin="round"/>
<path d="M265.789 421.683H307.633" stroke="#263238" stroke-miterlimit="10" stroke-linecap="round" stroke-linejoin="round"/>
<path d="M345.138 421.683H386.982" stroke="#263238" stroke-miterlimit="10" stroke-linecap="round" stroke-linejoin="round"/>
<path d="M271.684 375.962C264.675 380.379 262.599 389.611 267.038 396.585C271.477 403.559 280.762 405.633 287.771 401.216C294.779 396.798 296.856 387.566 292.417 380.592C287.978 373.618 278.692 371.544 271.684 375.962ZM286.065 398.545C280.541 402.032 273.218 400.399 269.721 394.902C266.224 389.405 267.858 382.119 273.39 378.639C278.914 375.152 286.236 376.785 289.733 382.289C293.231 387.779 291.596 395.058 286.065 398.545Z" fill="#2E5CFF"/>
<path d="M285.3 383.71L272.537 391.758L273.84 393.803L286.603 385.755L285.3 383.71Z" fill="#2E5CFF"/>
<path d="M272.483 416.96C272.483 416.96 272.69 421.697 278.892 413.253C285.094 404.816 284.266 405.434 282.618 410.164C280.962 414.901 277.65 419.425 277.65 419.425C277.65 419.425 285.094 407.693 285.094 410.988C285.094 414.283 278.064 428.274 279.513 427.038C280.962 425.802 285.508 419.631 285.508 419.631C285.508 419.631 284.887 423.75 286.543 421.896C288.199 420.043 290.062 416.343 289.855 418.395C289.648 420.454 286.957 422.926 289.648 420.454C292.338 417.983 294.408 414.901 293.787 417.159C293.166 419.425 291.51 420.249 293.166 419.425C294.822 418.601 304.129 403.169 301.231 405.015C298.333 406.869 292.959 422.919 295.443 421.683C297.927 420.447 300.817 414.276 300.61 417.358C300.403 420.447 301.231 420.447 302.059 419.418" stroke="#263238" stroke-miterlimit="10" stroke-linecap="round" stroke-linejoin="round"/>
</g>
</g>
<path d="M571.621 162.191C549.291 166.067 528.182 151.103 524.312 128.835C520.442 106.568 535.461 85.5046 557.791 81.6289C580.121 77.7531 601.23 92.7174 605.1 114.985C608.97 137.252 593.951 158.316 571.621 162.191Z" fill="#2E5CFF"/>
<path fill-rule="evenodd" clip-rule="evenodd" d="M586.566 116.959C584.307 105.423 573.077 97.6609 561.234 99.7445C549.517 101.754 541.63 112.509 543.037 124.04C543.06 124.365 543.083 124.69 543.232 124.941C543.909 128.944 545.741 132.604 548.304 135.493L546.349 147.656L557.789 141.745C561.216 142.939 564.973 143.26 568.661 142.606C580.704 140.574 588.745 129.22 586.663 117.41C586.789 117.335 586.714 117.21 586.566 116.959ZM568.105 139.378C564.417 140.033 560.711 139.512 557.536 138.169L550.898 141.582L551.97 134.514C549.229 131.899 547.346 128.439 546.669 124.435C546.497 123.859 546.451 123.209 546.479 122.684C545.886 113.382 552.355 104.819 561.939 103.223C571.523 101.627 580.659 107.577 583.083 116.815C583.18 117.265 583.278 117.716 583.375 118.166C584.993 128.049 578.267 137.61 568.105 139.378Z" fill="white"/>
<path fill-rule="evenodd" clip-rule="evenodd" d="M575.72 123.87C575.12 123.717 572.243 122.876 571.843 122.774C571.317 122.746 570.917 122.643 570.763 123.242C570.483 123.916 569.723 125.211 569.42 125.559C569.191 126.033 568.866 126.056 568.265 125.903C567.665 125.75 565.812 125.489 563.541 123.952C561.693 122.842 560.4 121.235 559.977 120.808C559.554 120.381 559.856 120.032 560.034 119.758C560.211 119.484 560.439 119.011 560.742 118.663C560.868 118.588 560.793 118.463 560.919 118.389C560.97 118.189 561.022 117.989 561.199 117.715C561.302 117.316 561.153 117.065 561.004 116.814C560.855 116.564 559.242 114.13 558.646 113.127C558.051 112.124 557.548 112.421 557.222 112.444C556.896 112.468 556.57 112.491 556.244 112.514C555.919 112.537 555.415 112.834 554.935 113.456C554.581 114.004 553.318 115.597 553.829 118.174C553.875 118.824 554.172 119.326 554.344 119.902C555.185 121.606 556.656 122.939 556.804 123.189C557.153 123.491 561.433 128.414 567.215 129.571C572.996 130.728 572.95 130.078 573.779 129.758C574.808 129.489 576.798 127.975 577.031 126.652C577.265 125.328 577.122 124.228 576.847 124.051C576.721 124.126 576.321 124.023 575.72 123.87Z" fill="white"/>
<defs>
<clipPath id="clip0_1_652">
<rect width="504.703" height="494.698" fill="white" transform="translate(23.3057 80.7823)"/>
</clipPath>
<clipPath id="clip1_1_652">
<rect width="155.008" height="201.962" fill="white" transform="translate(249.359 241.922)"/>
</clipPath>
</defs>
</svg>
