<svg width="312" height="60" viewBox="0 0 312 60" fill="none" xmlns="http://www.w3.org/2000/svg">
<path d="M33.5824 56.1413C33.6075 57.2265 33.6299 58.3118 33.6551 59.3943C26.3854 59.3887 13.8794 59.3803 6.60963 59.3747C4.47262 59.3719 1.98317 59.1957 0.774807 57.4335C0.0251754 56.3398 0 54.9245 0 53.5987C0.0111885 37.7081 0.0195801 21.8148 0.0307686 5.92433C0.0307686 5.08519 0.0475495 4.22647 0.25174 3.40691C0.461525 2.56497 0.903473 1.98596 1.45451 1.34542C2.52861 0.100696 4.27402 0 5.80964 0C17.2667 0.00559427 28.7238 0.0139877 40.1808 0.019582C42.3066 0.019582 44.7877 0.201395 45.9765 1.96359C46.6897 3.0237 46.7233 4.38311 46.7289 5.6586C46.7848 16.2793 46.7848 26.9028 46.7233 37.5235C45.6184 37.5207 44.5108 37.5207 43.4059 37.5179C43.4367 26.749 43.4674 15.98 43.4982 5.21106C43.501 4.65723 43.4758 4.03626 43.0758 3.65305C42.6954 3.28663 42.1136 3.26425 41.585 3.26425C29.3363 3.25586 17.0877 3.24747 4.83904 3.23908C4.44184 3.23908 4.01109 3.25027 3.7062 3.50481C3.32299 3.82368 3.29223 4.3915 3.29223 4.88939C3.27824 21.4344 3.26425 37.9823 3.25027 54.5273C3.25027 55.014 3.28383 55.5762 3.67543 55.8671C3.94396 56.0685 4.30759 56.0769 4.64604 56.0797C12.5479 56.1049 25.6833 56.1245 33.5824 56.1413Z" fill="#2E5CFF"/>
<path d="M13.4319 15.6332C13.4291 13.5745 13.4235 11.734 13.4207 9.84029C15.3424 9.8375 17.1465 9.8319 19.0598 9.8291C19.0626 11.7228 19.0681 13.5661 19.0709 15.5604C21.0485 15.5576 22.9198 15.552 24.8498 15.5492C24.8526 17.5016 24.8582 19.303 24.861 21.2078C22.9897 21.2106 21.1492 21.2162 19.1604 21.219C19.1632 23.1854 19.1688 25.0567 19.1716 26.9923C17.222 26.9951 15.4179 27.0007 13.4655 27.0035C13.4627 25.163 13.4571 23.2917 13.4543 21.2945C11.4711 21.2973 9.63341 21.3029 7.72018 21.3057C7.71738 19.3813 7.71178 17.5856 7.70898 15.6443C9.56348 15.6415 11.3956 15.6359 13.4319 15.6332Z" fill="#2E5CFF"/>
<path d="M23.3198 34.6537C18.8835 34.6593 14.4501 34.6621 10.0138 34.6677C9.19986 34.6677 8.288 34.6285 7.73137 34.0327C7.59432 33.8873 7.48802 33.7082 7.46284 33.5096C7.25306 31.8565 9.87118 32.1335 10.7495 32.1363C18.3157 32.153 25.8848 32.1698 33.451 32.1894C34.6761 32.1922 35.9041 32.195 37.1292 32.1978C37.6271 32.1978 38.139 32.2034 38.5921 32.4076C39.0453 32.6118 39.4229 33.0733 39.3641 33.5656C39.3138 33.9908 38.9558 34.3292 38.5558 34.4831C38.1558 34.6369 37.7166 34.6397 37.2859 34.6397C36.3125 34.6397 35.3391 34.6425 34.3657 34.6425C30.6874 34.6453 27.0036 34.6481 23.3198 34.6537Z" fill="#161616"/>
<path d="M36.4522 39.5234C35.3082 40.3989 34.4131 41.1234 33.4705 41.7807C33.2159 41.9569 32.8244 41.9933 32.4943 41.9961C24.6427 42.0381 16.7912 42.0632 8.93963 42.1024C8.02777 42.108 7.24457 41.9262 7.26415 40.8353C7.28373 39.8115 8.07252 39.6409 8.91446 39.6381C14.2682 39.6157 19.6219 39.5934 24.9756 39.571C28.7098 39.557 32.4439 39.5402 36.4522 39.5234Z" fill="#161616"/>
<path d="M29.2385 47.0926C28.9952 47.7275 28.8022 48.3933 28.4833 48.9918C28.363 49.2156 27.9491 49.403 27.6665 49.4058C21.3143 49.4226 14.9592 49.4114 8.60687 49.4086C7.75655 49.4086 7.1272 49.1009 7.1272 48.1667C7.1272 47.2996 7.72858 46.9443 8.52016 46.9443C15.3396 46.9471 22.1562 46.9611 28.9756 46.9779C29.0371 46.9723 29.0987 47.0282 29.2385 47.0926Z" fill="#161616"/>
<path d="M34.1726 27.4007C32.8943 27.3979 31.6188 27.3979 30.3405 27.3895C29.5265 27.3839 28.9839 27.0231 28.9811 26.1588C28.9783 25.342 29.5153 24.9784 30.265 24.9728C32.8579 24.9616 35.4509 24.9756 38.041 24.9923C38.8018 24.9979 39.3584 25.3812 39.3584 26.1588C39.3584 26.9671 38.8466 27.4119 38.0018 27.4091C36.7264 27.4035 35.4481 27.4035 34.1726 27.4007Z" fill="#161616"/>
<path d="M34.5054 10.1201C35.7417 10.1145 36.9809 10.1089 38.2172 10.1033C39.0284 10.1005 39.6242 10.4529 39.6269 11.2949C39.6297 12.12 39.0759 12.5116 38.2452 12.5144C35.6942 12.52 33.1404 12.5368 30.5894 12.5452C29.8286 12.548 29.2971 12.2179 29.2552 11.4151C29.2104 10.5424 29.7447 10.1564 30.5614 10.1452C31.8733 10.1201 33.1907 10.1257 34.5054 10.1201Z" fill="#161616"/>
<path d="M34.2677 19.9658C33.0314 19.9714 31.7923 19.9714 30.5559 19.9826C29.7559 19.991 29.1602 19.7001 29.1238 18.8302C29.0818 17.8708 29.714 17.5799 30.5587 17.5743C33.0342 17.5659 35.5097 17.5575 37.9851 17.5379C38.8271 17.5323 39.504 17.8204 39.49 18.7435C39.4788 19.6358 38.8466 19.9714 37.9795 19.9574C36.7432 19.9351 35.5041 19.9602 34.2677 19.9658Z" fill="#161616"/>
<path d="M43.49 40.8465C43.8704 40.9248 44.2592 40.964 44.6256 41.0842C47.0675 41.8702 48.5528 43.5261 48.9779 46.0603C49.1038 46.8128 49.0339 47.5988 49.0534 48.3708C49.0562 48.4323 49.0618 48.4966 49.0507 48.5554C49.0199 48.7428 49.0898 48.8379 49.266 48.933C49.8394 49.2379 50.1471 49.733 50.1527 50.3875C50.1583 51.1847 50.1527 51.9819 50.1415 52.779C50.1024 56.0209 47.7024 58.9635 44.5333 59.6516C40.939 60.4348 37.4453 58.5523 36.1335 55.1175C35.837 54.3454 35.6859 53.5399 35.6859 52.7119C35.6831 51.9203 35.6859 51.1287 35.6971 50.3399C35.7083 49.6435 36.0468 49.1456 36.6622 48.8407C36.7824 48.7819 36.8188 48.7204 36.816 48.5945C36.8132 48.0127 36.802 47.4309 36.8244 46.8519C36.9251 44.4632 38.0355 42.6926 40.125 41.5374C40.8075 41.1598 41.5487 40.9528 42.3263 40.8773C42.3683 40.8745 42.4075 40.8549 42.4494 40.8437C42.7991 40.8409 43.1431 40.8437 43.49 40.8465ZM42.9305 49.8169C41.1012 49.8085 39.2719 49.8001 37.4453 49.7917C37.0398 49.7889 36.8104 50.0155 36.8076 50.4183C36.802 51.1343 36.7824 51.8532 36.8048 52.5693C36.8188 53.0112 36.8551 53.4588 36.9475 53.8923C37.8146 58.0209 42.6172 60.0488 46.1668 57.7747C48.0409 56.572 48.9807 54.8182 49.0367 52.5972C49.0534 51.9119 49.0451 51.2266 49.0479 50.5386C49.0507 50.0602 48.8409 49.8477 48.3654 49.8449C46.5528 49.8337 44.7403 49.8253 42.9305 49.8169ZM45.6997 48.7092C45.7025 48.0379 45.7081 47.3778 45.7081 46.7177C45.7081 46.6449 45.6969 46.5694 45.6829 46.4967C45.4619 45.2128 44.3682 44.245 43.0648 44.1807C41.7837 44.1191 40.6117 44.9751 40.2676 46.2226C40.2257 46.3708 40.1865 46.5247 40.1837 46.6757C40.1726 47.3414 40.1726 48.0071 40.1698 48.6813C42.0103 48.6924 43.848 48.7008 45.6997 48.7092ZM47.9402 48.726C47.943 48.3848 47.9514 48.0603 47.943 47.733C47.9262 47.1904 47.9542 46.6393 47.8619 46.1079C47.2493 42.5443 43.1739 40.7933 40.167 42.8045C38.8607 43.6772 38.1083 44.9191 37.9712 46.4911C37.9097 47.2044 37.9404 47.9232 37.9293 48.6393C37.9293 48.6505 37.9404 48.6589 37.946 48.6673C38.3097 48.6701 38.6677 48.6701 39.0369 48.6729C39.0397 48.2505 39.0341 47.8449 39.0453 47.4365C39.0537 47.0533 39.0369 46.6645 39.104 46.2925C39.504 44.0996 41.5292 42.729 43.7249 43.1457C45.4759 43.4786 46.8297 45.1065 46.8325 46.8883C46.8325 47.4309 46.8269 47.9764 46.8269 48.519C46.8269 48.5834 46.8269 48.6477 46.8269 48.7176C47.2073 48.7204 47.5598 48.7232 47.9402 48.726Z" fill="#2E5CFF"/>
<path d="M42.3459 55.6909C42.3487 55.2573 42.3431 54.8266 42.3571 54.393C42.3627 54.2364 42.3207 54.158 42.1752 54.0881C41.5235 53.7748 41.1487 53.0476 41.2606 52.3595C41.3865 51.6042 41.9739 51.0308 42.7179 50.9385C43.5235 50.8406 44.2871 51.3497 44.5192 52.1385C44.7486 52.9217 44.3794 53.7608 43.6326 54.1049C43.4955 54.1692 43.4591 54.2391 43.4591 54.379C43.4619 55.2517 43.4535 56.1216 43.4507 56.9943C43.4479 57.3691 43.2242 57.6125 42.8857 57.6097C42.5585 57.6041 42.3403 57.3607 42.3403 56.9943C42.3403 56.5552 42.3431 56.1244 42.3459 55.6909ZM43.4703 52.5944C43.4647 52.2979 43.2018 52.0406 42.9081 52.0434C42.6116 52.049 42.3543 52.3119 42.3571 52.6056C42.3627 52.8993 42.6256 53.1595 42.9193 53.1567C43.2158 53.1511 43.4759 52.8853 43.4703 52.5944Z" fill="#2E5CFF"/>
<path d="M81.52 44.48C89.52 44.48 93.4 40.48 93.4 35.8C93.4 25.52 77.12 29.08 77.12 23.92C77.12 22.16 78.6 20.72 82.44 20.72C84.92 20.72 87.6 21.44 90.2 22.92L92.2 18C89.6 16.36 86 15.52 82.48 15.52C74.52 15.52 70.68 19.48 70.68 24.24C70.68 34.64 86.96 31.04 86.96 36.28C86.96 38 85.4 39.28 81.56 39.28C78.2 39.28 74.68 38.08 72.32 36.36L70.12 41.24C72.6 43.16 77.08 44.48 81.52 44.48ZM118.468 33.32C118.468 26.4 113.588 22.16 107.268 22.16C100.708 22.16 95.7878 26.8 95.7878 33.24C95.7878 39.64 100.628 44.32 108.068 44.32C111.948 44.32 114.948 43.12 116.948 40.84L113.628 37.24C112.148 38.64 110.508 39.32 108.228 39.32C104.948 39.32 102.668 37.68 102.068 35H118.348C118.388 34.48 118.468 33.8 118.468 33.32ZM107.308 26.88C110.108 26.88 112.148 28.64 112.588 31.36H101.988C102.428 28.6 104.468 26.88 107.308 26.88ZM135.702 22.16C132.942 22.16 130.542 23.04 128.862 24.72V14.32H122.622V44H128.862V33.36C128.862 29.4 131.022 27.56 134.022 27.56C136.782 27.56 138.382 29.16 138.382 32.64V44H144.622V31.68C144.622 25.12 140.782 22.16 135.702 22.16ZM158.958 22.16C155.518 22.16 152.038 23.08 149.678 24.76L151.918 29.12C153.478 27.88 155.838 27.12 158.118 27.12C161.478 27.12 163.078 28.68 163.078 31.36H158.118C151.558 31.36 148.878 34 148.878 37.8C148.878 41.52 151.878 44.32 156.918 44.32C160.078 44.32 162.318 43.28 163.478 41.32V44H169.318V31.72C169.318 25.2 165.518 22.16 158.958 22.16ZM158.478 40.12C156.278 40.12 154.958 39.08 154.958 37.52C154.958 36.08 155.878 35 158.798 35H163.078V37.2C162.358 39.16 160.558 40.12 158.478 40.12ZM187.166 38.56C186.486 39.08 185.566 39.36 184.646 39.36C182.966 39.36 181.966 38.36 181.966 36.52V27.76H187.326V22.96H181.966V17.72H175.726V22.96H172.406V27.76H175.726V36.6C175.726 41.72 178.686 44.32 183.766 44.32C185.686 44.32 187.566 43.88 188.846 42.96L187.166 38.56ZM214.509 16V38.72L196.469 16H194.029V44H196.989V21.28L214.989 44H217.429V16H214.509ZM233.328 22.8C230.008 22.8 226.888 23.84 224.768 25.64L226.048 27.76C227.768 26.24 230.328 25.28 233.048 25.28C236.968 25.28 239.008 27.24 239.008 30.84V32.12H232.328C226.288 32.12 224.208 34.84 224.208 38.08C224.208 41.72 227.128 44.2 231.888 44.2C235.368 44.2 237.848 42.88 239.128 40.72V44H241.848V30.96C241.848 25.52 238.768 22.8 233.328 22.8ZM232.328 41.96C228.968 41.96 227.008 40.44 227.008 38C227.008 35.84 228.328 34.24 232.408 34.24H239.008V37.68C237.888 40.44 235.528 41.96 232.328 41.96ZM275.802 22.8C272.002 22.8 269.002 24.52 267.482 27.24C266.202 24.28 263.482 22.8 260.002 22.8C256.482 22.8 253.762 24.28 252.282 26.8V22.96H249.562V44H252.402V32.96C252.402 28.16 255.162 25.36 259.442 25.36C263.282 25.36 265.522 27.64 265.522 32.08V44H268.362V32.96C268.362 28.16 271.082 25.36 275.402 25.36C279.202 25.36 281.442 27.64 281.442 32.08V44H284.282V31.8C284.282 25.76 280.922 22.8 275.802 22.8ZM299.343 22.8C296.023 22.8 292.903 23.84 290.783 25.64L292.063 27.76C293.783 26.24 296.343 25.28 299.063 25.28C302.983 25.28 305.023 27.24 305.023 30.84V32.12H298.343C292.303 32.12 290.223 34.84 290.223 38.08C290.223 41.72 293.143 44.2 297.903 44.2C301.383 44.2 303.863 42.88 305.143 40.72V44H307.863V30.96C307.863 25.52 304.783 22.8 299.343 22.8ZM298.343 41.96C294.983 41.96 293.023 40.44 293.023 38C293.023 35.84 294.343 34.24 298.423 34.24H305.023V37.68C303.903 40.44 301.543 41.96 298.343 41.96Z" fill="#2E5CFF"/>
</svg>
